HIERARCHY
ROOT Hips
{
 OFFSET 0.000000 0.000000 0.000000
 CHANNELS 6 Xposition Yposition Zposition Yrotation Xrotation Zrotation
 JOINT Chest
 {
  OFFSET 0.000000 9.585900 0.002600
  CHANNELS 3 Yrotation Xrotation Zrotation
  JOINT Chest2
  {
   OFFSET 0.000000 9.601200 -0.005300
   CHANNELS 3 Yrotation Xrotation Zrotation
   JOINT Chest3
   {
    OFFSET 0.000000 9.561800 0.000000
    CHANNELS 3 Yrotation Xrotation Zrotation
    JOINT Chest4
    {
     OFFSET 0.000000 9.552100 0.000000
     CHANNELS 3 Yrotation Xrotation Zrotation
     JOINT Neck
     {
      OFFSET 0.000000 14.453000 0.000000
      CHANNELS 3 Yrotation Xrotation Zrotation
      JOINT Head
      {
       OFFSET 0.000000 8.936500 -0.011300
       CHANNELS 3 Yrotation Xrotation Zrotation
       End Site
       {
        OFFSET 0.000000 17.073600 -0.006000
       }
      }
     }
     JOINT RightCollar
     {
      OFFSET -2.921100 9.558500 0.000000
      CHANNELS 3 Yrotation Xrotation Zrotation
      JOINT RightShoulder
      {
       OFFSET -13.519700 0.000000 0.000000
       CHANNELS 3 Yrotation Xrotation Zrotation
       JOINT RightElbow
       {
        OFFSET 0.000000 -29.696600 0.000000
        CHANNELS 3 Yrotation Xrotation Zrotation
        JOINT RightWrist
        {
         OFFSET 0.000000 -24.004700 0.000000
         CHANNELS 3 Yrotation Xrotation Zrotation
         End Site
         {
          OFFSET 0.000000 -17.728500 0.000000
         }
        }
       }
      }
     }
     JOINT LeftCollar
     {
      OFFSET 2.921100 9.558500 0.000000
      CHANNELS 3 Yrotation Xrotation Zrotation
      JOINT LeftShoulder
      {
       OFFSET 13.519700 0.000000 0.000000
       CHANNELS 3 Yrotation Xrotation Zrotation
       JOINT LeftElbow
       {
        OFFSET 0.000000 -29.696600 0.000000
        CHANNELS 3 Yrotation Xrotation Zrotation
        JOINT LeftWrist
        {
         OFFSET 0.000000 -24.004700 0.000000
         CHANNELS 3 Yrotation Xrotation Zrotation
         End Site
         {
          OFFSET 0.000000 -17.728500 0.000000
         }
        }
       }
      }
     }
    }
   }
  }
 }
 JOINT RightHip
 {
  OFFSET -7.771700 -0.012900 -0.001300
  CHANNELS 3 Yrotation Xrotation Zrotation
  JOINT RightKnee
  {
   OFFSET 0.000000 -40.869800 0.001200
   CHANNELS 3 Yrotation Xrotation Zrotation
   JOINT RightAnkle
   {
    OFFSET 0.000000 -39.717900 0.002100
    CHANNELS 3 Yrotation Xrotation Zrotation
    JOINT RightToe
    {
     OFFSET 0.000000 -4.965400 11.033500
     CHANNELS 3 Yrotation Xrotation Zrotation
     End Site
     {
      OFFSET 0.000000 -1.423100 5.872300
     }
    }
   }
  }
 }
 JOINT LeftHip
 {
  OFFSET 7.771700 -0.012900 -0.001300
  CHANNELS 3 Yrotation Xrotation Zrotation
  JOINT LeftKnee
  {
   OFFSET 0.000000 -40.869800 0.001200
   CHANNELS 3 Yrotation Xrotation Zrotation
   JOINT LeftAnkle
   {
    OFFSET 0.000000 -39.717900 0.002100
    CHANNELS 3 Yrotation Xrotation Zrotation
    JOINT LeftToe
    {
     OFFSET 0.000000 -4.965400 11.033500
     CHANNELS 3 Yrotation Xrotation Zrotation
     End Site
     {
      OFFSET 0.000000 -1.423100 5.872300
     }
    }
   }
  }
 }
}
MOTION
Frames: 8
Frame Time: 0.008333
0.000000 85.388000 0.000000 0.000000 -5.767877 0.000000 0.000000 11.653817 0.000000 0.000000 -5.885947 0.000000 0.000000 -0.000000 0.000000 0.000000 -0.000000 0.000000 0.000000 12.528835 0.000000 0.000000 0.711642 0.000000 0.000000 -0.000000 0.000000 0.000000 0.000000 -90.000000 0.000000 -2.309062 0.000000 0.000000 2.309062 0.000000 0.000000 -0.000000 0.000000 0.000000 -0.000000 90.000000 0.000000 -2.309062 0.000000 0.000000 2.309062 0.000000 0.000000 8.520406 0.000000 0.000000 1.905762 0.000000 -0.000000 -4.658285 0.000000 0.000000 -0.000000 0.000000 0.000000 8.520406 0.000000 0.000000 1.905762 0.000000 -0.000000 -4.658285 0.000000 0.000000 -0.000000 0.000000
12.803813 50.174302 50.650514 172.077851 -26.317515 -7.441769 5.729428 18.057456 9.311097 0.536009 2.367388 0.886639 0.917287 3.763309 1.546668 4.536970 15.717852 6.811323 -0.386823 18.384471 0.594743 -0.971646 -1.690104 1.160091 -2.552579 -3.318178 -6.665809 7.385004 -3.500470 -1.864795 107.325687 -72.774960 -113.135625 3.218414 -6.817955 -5.021242 -13.903850 -4.406000 -0.332696 -8.680350 -29.249948 -1.733678 -152.538563 -50.503717 149.508280 20.920870 -29.578877 12.952332 -1.265930 -54.106424 12.775086 -110.095478 84.068969 -98.561035 -2.562866 -12.522914 -3.627872 -0.425514 1.339236 -0.180449 -11.197368 -57.558600 19.314338 -155.826425 79.890161 -162.862111 0.941841 -16.988482 8.111351 -0.371408 -0.537083 -0.182176
12.800129 50.181449 50.668694 172.098715 -26.302704 -7.425253 5.699304 18.086915 9.253352 0.541555 2.372748 0.889022 0.913857 3.805429 1.510654 4.554496 15.678451 6.820265 -0.392657 18.329120 0.605008 -0.977833 -1.812151 1.203853 -2.523242 -3.323858 -6.671140 7.405815 -3.518406 -1.836823 107.494800 -72.765736 -113.303737 3.205293 -6.852918 -4.992015 -13.853474 -4.332078 -0.387838 -8.675988 -29.057726 -1.729312 -152.437541 -50.360949 149.446759 20.869246 -29.531210 12.818473 -1.262949 -54.108011 12.748702 -109.777871 84.063433 -98.255623 -2.581873 -12.527629 -3.618051 -0.427620 1.343433 -0.185781 -11.189730 -57.569230 19.267910 -155.841068 79.930007 -162.876038 0.946227 -16.981169 8.093602 -0.383728 -0.535336 -0.174506
12.799967 50.189924 50.690577 172.101875 -26.285647 -7.415539 5.693847 18.112749 9.220928 0.546902 2.375490 0.883445 0.916529 3.825867 1.496151 4.564323 15.704032 6.780703 -0.389264 18.236912 0.648132 -0.998897 -1.929888 1.244718 -2.497785 -3.362802 -6.645243 7.424600 -3.537407 -1.807528 107.600378 -72.763779 -113.443456 3.191416 -6.892933 -4.916820 -13.808347 -4.292436 -0.401154 -8.687517 -28.847854 -1.706263 -152.356717 -50.237689 149.407240 20.822676 -29.491125 12.704599 -1.287959 -54.108384 12.770638 -109.329137 84.062829 -97.838397 -2.589125 -12.524046 -3.614049 -0.456205 1.350366 -0.184919 -11.186745 -57.577154 19.254799 -155.861010 79.971744 -162.888564 0.913937 -16.991024 8.074545 -0.376727 -0.515102 -0.163477
12.802916 50.197664 50.718243 172.061557 -26.248838 -7.399145 5.730166 18.110221 9.198922 0.553234 2.377820 0.876364 0.916324 3.810188 1.507167 4.574116 15.773279 6.715452 -0.390026 18.147892 0.693652 -1.035113 -2.048350 1.290716 -2.478865 -3.399884 -6.610929 7.440235 -3.557646 -1.780283 107.761455 -72.753265 -113.612295 3.187931 -6.891448 -4.846507 -13.766361 -4.261962 -0.406619 -8.715596 -28.621614 -1.663534 -152.305894 -50.151597 149.391431 20.784036 -29.453922 12.604949 -1.297189 -54.143429 12.813345 -108.809962 84.078039 -97.344835 -2.609609 -12.474022 -3.623069 -0.402425 1.314828 -0.176774 -11.176344 -57.604488 19.284396 -155.801474 80.012858 -162.832844 0.900411 -17.000737 8.067194 -0.379318 -0.495587 -0.160079
12.801424 50.206771 50.741723 172.063013 -26.232149 -7.359729 5.731821 18.154481 9.117365 0.553679 2.355390 0.889747 0.915327 3.799583 1.519456 4.585511 15.821534 6.660431 -0.446943 18.095408 0.671076 -1.041294 -2.182440 1.380143 -2.464077 -3.413566 -6.585393 7.451541 -3.577197 -1.758879 107.880107 -72.736673 -113.649099 3.195231 -6.874547 -4.851258 -13.720663 -4.225544 -0.426131 -8.756368 -28.383508 -1.602677 -152.306751 -50.122931 149.407456 20.762135 -29.409587 12.499470 -1.261819 -54.158291 12.760487 -108.519064 84.093722 -97.061284 -2.637716 -12.443246 -3.634025 -0.400831 1.299892 -0.167597 -11.121151 -57.617450 19.221786 -155.812293 80.063850 -162.845586 0.870505 -16.984231 8.058467 -0.371535 -0.494808 -0.151860
12.802779 50.217943 50.760905 172.045368 -26.247786 -7.313425 5.739816 18.178574 9.072652 0.562150 2.381684 0.865843 0.917439 3.811216 1.511779 4.600180 15.846786 6.621500 -0.469561 18.029952 0.697521 -1.092444 -2.303231 1.436996 -2.450235 -3.424051 -6.554339 7.455318 -3.592671 -1.744809 107.934398 -72.738046 -113.673325 3.208796 -6.875389 -4.793016 -13.668751 -4.194638 -0.442861 -8.807724 -28.142952 -1.525147 -152.381082 -50.165428 149.468843 20.756215 -29.351319 12.370563 -1.205585 -54.143152 12.714729 -108.213015 84.102118 -96.752803 -2.726819 -12.417466 -3.617065 -0.389814 1.280825 -0.181333 -11.035518 -57.601647 19.147013 -155.775672 80.098073 -162.808215 0.869781 -16.968493 8.043497 -0.368614 -0.508766 -0.144994
12.802571 50.226182 50.783147 172.059066 -26.231764 -7.262177 5.718289 18.194962 8.989607 0.569275 2.388027 0.860925 0.930126 3.854191 1.474893 4.612796 15.838062 6.609884 -0.496835 17.967119 0.725751 -1.152770 -2.418998 1.498688 -2.435820 -3.434232 -6.522983 7.435115 -3.631155 -1.716822 107.865918 -72.736780 -113.542300 3.223556 -6.889240 -4.745043 -13.610318 -4.162893 -0.459735 -8.863019 -27.911366 -1.435537 -152.526150 -50.277844 149.570769 20.760321 -29.277875 12.209889 -1.172010 -54.161773 12.653762 -107.976641 84.098273 -96.521480 -2.821172 -12.384838 -3.608571 -0.387691 1.249441 -0.183906 -10.969103 -57.613492 19.063878 -155.844136 80.155958 -162.885249 0.821291 -16.947329 8.036947 -0.360955 -0.499135 -0.133290
